<svg xmlns="http://www.w3.org/2000/svg" viewBox="0 0 100 100">
  <path fill="#151312" d="M15,14a4,4 0 0 1 4,-4h22a4,4 0 0 1 4,4v59h-30z"/>
  <path fill="#F5F4F2" d="M18,14.5a2,2 0 0 1 2,-2h16a2,2 0 0 1 2,2v41.5h-20z"/>
  <path fill="#151312" stroke="#F5F4F2" stroke-width="0.6" d="M56,14a4,4 0 0 1 4,-4h22a4,4 0 0 1 4,4v59h-30z"/>

  <path fill="#151312" stroke="#F5F4F2" stroke-width="0.6" d="M49,27h2v41.5a1.5,1.5 0 0 1 -1,1.5a1.5,1.5 0 0 1 -1,-1.5z"/>
  <rect x="46" y="70" width="8" height="3" rx="0.8" fill="#151312" stroke="#F5F4F2" stroke-width="0.6"/>
  <path fill="#151312" stroke="#F5F4F2" stroke-width="0.6" d="M50,18l4,5l-4,5l-4,-5z"/>

  <g>
    <rect x="31" y="21" width="19" height="4" fill="#151312" stroke="#F5F4F2" stroke-width="0.6"/>
    <circle cx="32" cy="23" r="2.4" fill="#151312" stroke="#F5F4F2" stroke-width="0.6"/>
  </g>
  <g>
    <rect x="50" y="21" width="19" height="4" fill="#F5F4F2" stroke="#151312" stroke-width="0.6"/>
    <circle cx="68" cy="23" r="2.4" fill="#F5F4F2" stroke="#151312" stroke-width="0.6"/>
  </g>

  <line x1="32" y1="25.4" x2="28" y2="31" stroke="#151312" stroke-width="1.1"/>
  <line x1="32" y1="25.4" x2="36" y2="31" stroke="#151312" stroke-width="1.1"/>
  <rect x="27.3" y="31" width="9.4" height="2.4" rx="1.2" fill="#151312"/>

  <line x1="68" y1="25.4" x2="64" y2="31" stroke="#F5F4F2" stroke-width="1.1"/>
  <line x1="68" y1="25.4" x2="72" y2="31" stroke="#F5F4F2" stroke-width="1.1"/>
  <rect x="63.3" y="31" width="9.4" height="2.4" rx="1.2" fill="#F5F4F2" stroke="#151312" stroke-width="0.4"/>

  <rect x="15" y="76" width="30" height="3" rx="1.5" fill="#7d7979"/>
  <rect x="19" y="81" width="22" height="2.4" rx="1.2" fill="#bab6b6"/>
  <rect x="55" y="76" width="30" height="3" rx="1.5" fill="#7d7979"/>
  <rect x="59" y="81" width="22" height="2.4" rx="1.2" fill="#bab6b6"/>
</svg>
